<?xml version="1.0" encoding="UTF-8"?>
<svg version="1.1" xmlns="http://www.w3.org/2000/svg" width="500" height="500">
<path d="M0 0 C165 0 330 0 500 0 C500 165 500 330 500 500 C335 500 170 500 0 500 C0 335 0 170 0 0 Z " fill="#727272" transform="translate(0,0)"/>
<path d="M0 0 C3.34584964 -1.45042909 5.50054036 -3.27738825 8.0390625 -5.87890625 C8.78414062 -6.63494141 9.52921875 -7.39097656 10.296875 -8.16992188 C11.44929688 -9.35424805 11.44929688 -9.35424805 12.625 -10.5625 C14.15663169 -12.12847891 15.69038195 -13.69238939 17.2265625 -15.25390625 C18.24097412 -16.29526733 18.24097412 -16.29526733 19.27587891 -17.35766602 C21.65921606 -19.62794484 22.66427494 -19.97901718 26 -20.1875 C29 -20 29 -20 31 -18 C31.19349721 -15.11325756 31.26218751 -12.32279896 31.24291992 -9.43530273 C31.24481827 -8.54904205 31.24671661 -7.66278137 31.24867249 -6.74966431 C31.25238685 -3.81088505 31.24166746 -0.87235116 31.23046875 2.06640625 C31.22927731 4.10139436 31.22882371 6.13638302 31.2290802 8.17137146 C31.22751424 12.43939651 31.21921538 16.70733781 31.20581055 20.9753418 C31.18880979 26.45915512 31.18499644 31.9428764 31.18575573 37.42671299 C31.18548444 41.62929674 31.18001004 45.83186017 31.17275429 50.03443718 C31.16956172 52.05714705 31.16759885 54.07985923 31.16686058 56.10257149 C31.16470383 58.92332038 31.1559744 61.74396961 31.14526367 64.56469727 C31.14594345 65.83096703 31.14594345 65.83096703 31.14663696 67.12281799 C31.11447425 72.88552575 31.11447425 72.88552575 30 74 C28.33382885 74.04063832 26.66611905 74.042721 25 74 C22.8105696 69.18385524 20.71298952 64.34200922 18.73828125 59.43359375 C7.41252311 31.34264123 -7.24709728 3.23329949 -36.32006836 -9.74316406 C-55.8945528 -17.9638076 -83.0027641 -18.55682035 -102.7578125 -10.5234375 C-114.86392364 -5.20344553 -121.16157843 2.76764053 -126.19775391 14.82617188 C-136.2356203 42.02555178 -135.16198436 72.33299281 -135.20018864 100.82629824 C-135.20316419 102.94192403 -135.207276 105.05754494 -135.21169281 107.17316818 C-135.22528905 113.84842062 -135.23499551 120.52366128 -135.2388947 127.19892657 C-135.24336576 134.80199233 -135.26090303 142.40487747 -135.2898953 150.00788844 C-135.31176309 155.95684764 -135.321612 161.90575694 -135.32293582 167.85475576 C-135.32396552 171.37539621 -135.32946767 174.89586525 -135.34775543 178.41646194 C-135.45592332 200.49143556 -134.75116966 222.76187977 -129.1875 244.25 C-128.92888184 245.27810791 -128.67026367 246.30621582 -128.40380859 247.36547852 C-124.47010502 262.45102921 -119.0436572 276.17170044 -105.2734375 284.74609375 C-93.93211047 291.00136175 -83.02348411 292.26808666 -70.25 292.3125 C-69.30455322 292.31789795 -68.35910645 292.3232959 -67.38500977 292.32885742 C-46.65378996 292.12149113 -27.51656235 284.69390588 -12 271 C-11.11441406 270.23300781 -10.22882813 269.46601563 -9.31640625 268.67578125 C13.4743888 247.56600938 22.62649242 214.07280007 29.2109375 184.78125 C30 182 30 182 32 180 C33.65 180.33 35.3 180.66 37 181 C37 218.95 37 256.9 37 296 C35.68 296.33 34.36 296.66 33 297 C27.79294051 291.21708191 23.45898595 285.01728334 19.125 278.5625 C18.09246094 277.03592773 18.09246094 277.03592773 17.0390625 275.47851562 C15.35550392 272.98825189 13.67593985 270.49539463 12 268 C8.3922177 269.68045958 6.32665235 271.61650025 3.625 274.5625 C-5.27776053 283.60885345 -16.11921036 289.93623854 -28.03710938 294.27197266 C-29.36887871 294.76591994 -30.69064469 295.28754402 -32.00195312 295.83349609 C-44.97987619 301.1647884 -57.85560206 301.56529655 -71.6875 301.5625 C-72.55533112 301.56521912 -73.42316223 301.56793823 -74.31729126 301.57073975 C-89.9032995 301.56522238 -105.18544113 299.95592033 -120.125 295.3125 C-120.95064453 295.05976318 -121.77628906 294.80702637 -122.62695312 294.54663086 C-130.88863895 291.90165119 -138.43561601 288.20522787 -146 284 C-147.06734375 283.4225 -148.1346875 282.845 -149.234375 282.25 C-168.64457964 271.38833108 -185.92503776 255.71098674 -198 237 C-198.350625 236.45746582 -198.70125 235.91493164 -199.0625 235.35595703 C-205.07153936 225.96422494 -209.88560218 216.35469276 -214 206 C-214.26409668 205.35401855 -214.52819336 204.70803711 -214.80029297 204.04248047 C-221.72548236 186.91580615 -226.0939994 167.30468965 -226.203125 148.8203125 C-226.20882507 148.04928192 -226.21452515 147.27825134 -226.22039795 146.4838562 C-226.22979958 144.8551366 -226.23636256 143.22639839 -226.24023438 141.59765625 C-226.24983687 139.16630453 -226.28086242 136.73583775 -226.3125 134.3046875 C-226.38508487 123.54132995 -225.20763988 113.52368927 -223 103 C-222.68091688 101.33334725 -222.3618909 99.66668356 -222.04296875 98 C-213.69426932 57.9291349 -191.79488142 22.94051937 -157.77734375 -0.19140625 C-111.42389256 -29.54284808 -44.04440402 -37.51569811 0 0 Z " fill="#000000" transform="translate(343,124)"/>
</svg>
